# xmcd
#
# Track frame offsets: 
#        150
#        12563
#        28238
#        42113
#        58850
#        72338
#        86100
#        97388
#        109938
#        137200
#
# Disc length: 2051 seconds
#
# Revision: 8
# Processed by: cddbd v1.5.1PL0 Copyright (c) Steve Scherf et al.
# Submitted via: ExactAudioCopy v0.95a5
#
DISCID=9808010a
DTITLE=Various Artist - Johnny Otis Presents: The Best of Rhythm and Bl
DTITLE=ues: Willie and the Hand Jive
DYEAR=1998
DGENRE=Blues
TTITLE0=Johnny Otis - Willie and the Hand Jive
TTITLE1=Eddie "Cleahead" Vinson - Cleahead's Blues
TTITLE2=Joe Turner - Corrine, Corrina
TTITLE3=Amos Milburn - Evening Shadows Coming Down
TTITLE4=Joe Liggins and the Honeydrippers - The Honeydripper (Part 1)
TTITLE5=Louis Jordan - Beans and Corn Bread
TTITLE6=Richard Berry - Trackin' Machine
TTITLE7=Charles Brown - (Livin' In) Misery
TTITLE8=Gatemouth Moore - Beale Street Ain't Beale Street No More
TTITLE9=Pee Wee Crayton - Don't Forget To Close the Door
EXTD=LABEL =Delta Music Inc\nID =12192\nUPC =018111-219228\nCOPYRIG
EXTD=HT =1998\n*****\nThe cd title is listed several ways ...\n- jewe
EXTD=l case spine ="Johnny Otis Presents: The Best of Rhythm and Blues:
EXTD=Willie and the Hand Jive"\n- jewel case cover ="Johnny Otis Prese
EXTD=nts: The Best of Rhythm and Blues: Willie and the Hand Jive"\n- las
EXTD=t page of the pamphlet ="The Best of R and B, Volume 2"\n- cd fron
EXTD=t =no title at all\n... so i used the jewel case spine listing.
EXTT0=
EXTT1=
EXTT2=
EXTT3=
EXTT4=
EXTT5=
EXTT6=
EXTT7=
EXTT8=
EXTT9=
PLAYORDER=
